<?xml version="1.0" encoding="UTF-8"?>
<svg id="Layer_2" data-name="Layer 2" xmlns="http://www.w3.org/2000/svg" xmlns:xlink="http://www.w3.org/1999/xlink" viewBox="0 0 500 500">
  <defs>
    <style>
      .cls-1 {
        fill: #f8f0e4;
      }

      .cls-1, .cls-2, .cls-3, .cls-4, .cls-5, .cls-6, .cls-7 {
        stroke-width: 0px;
      }

      .cls-2 {
        fill: url(#linear-gradient);
      }

      .cls-3 {
        fill: #078fce;
      }

      .cls-4 {
        fill: #1c75bc;
      }

      .cls-5 {
        fill: #fffaf4;
      }

      .cls-6 {
        fill: #3c2823;
      }

      .cls-7 {
        fill: #425e45;
      }
    </style>
    <linearGradient id="linear-gradient" x1="82.5" y1="167.5" x2="582.5" y2="167.5" gradientTransform="translate(-82.5 417.5) scale(1 -1)" gradientUnits="userSpaceOnUse">
      <stop offset=".59" stop-color="#078fce" stop-opacity="0"/>
      <stop offset=".73" stop-color="#078fce"/>
    </linearGradient>
  </defs>
  <g id="Layer_1-2" data-name="Layer 1">
    <rect class="cls-3" y="0" width="500" height="500" rx="117.17" ry="117.17"/>
    <g>
      <path class="cls-5" d="M244.81,189.27c23.66,0,42.85-18.5,42.85-41.31s-19.18-41.31-42.85-41.31-42.85,18.5-42.85,41.31,19.18,41.31,42.85,41.31Z"/>
      <path class="cls-5" d="M121.78,189.27c23.66,0,42.85-18.5,42.85-41.31s-19.18-41.31-42.85-41.31-42.85,18.5-42.85,41.31,19.18,41.31,42.85,41.31Z"/>
      <path class="cls-5" d="M365.22,189.27c23.66,0,42.85-18.5,42.85-41.31s-19.18-41.31-42.85-41.31-42.85,18.5-42.85,41.31,19.18,41.31,42.85,41.31Z"/>
      <path class="cls-4" d="M281.2,390.59c-.16.02-.31.05-.47.07h0c.16-.02.31-.05.47-.07Z"/>
      <path class="cls-7" d="M365.22,223.98c-17.33-.04-33.19,6.52-33.19,6.52-10.19,4.2-19.35,10.27-27.02,17.77,15.07,14.73,24.37,34.94,24.37,57.26v72.35c42.58-14.57,85.16-29.13,127.74-43.7-22.82-68.3-64.57-110.14-91.91-110.2Z"/>
      <path class="cls-6" d="M121.78,223.98c-2.23,0-29.06.17-48.91,15.01-31.89,23.83-40.57,81.57-15.22,139.57,30.08,2.47,60.17,4.93,90.25,7.4-1.95-21.74-1.98-57.87,14.15-97.38,6.37-15.6,13.97-28.57,21.23-38.99-15.42-15.76-37.27-25.61-61.51-25.61Z"/>
      <path class="cls-4" d="M196.34,388.42c-1.5-.31-3-.64-4.49-.98,1.49.34,2.99.67,4.49.98Z"/>
      <path class="cls-4" d="M196.57,388.47c-.08-.02-.15-.03-.23-.05.08.02.15.03.23.05Z"/>
      <path class="cls-4" d="M191.85,387.45c-.14-.03-.28-.06-.42-.09.14.03.28.06.42.09Z"/>
      <path class="cls-4" d="M201.3,389.39c-1.58-.29-3.16-.6-4.73-.92,1.57.32,3.14.63,4.73.92Z"/>
      <path class="cls-4" d="M191.43,387.35c-1.43-.33-2.84-.67-4.26-1.02,1.41.35,2.83.69,4.26,1.02Z"/>
      <path class="cls-4" d="M201.35,389.4s-.04,0-.05,0c.02,0,.04,0,.05,0Z"/>
      <path class="cls-4" d="M173.22,382.41c-.29-.09-.59-.18-.89-.27.29.09.59.18.89.27Z"/>
      <path class="cls-4" d="M177.93,383.84c-.3-.09-.61-.17-.91-.26.3.09.61.17.91.26Z"/>
      <path class="cls-4" d="M187.18,386.33c-.2-.05-.4-.09-.6-.15.2.05.4.1.6.15Z"/>
      <path class="cls-4" d="M177.02,383.57c-1.27-.38-2.54-.77-3.8-1.17,1.26.4,2.53.79,3.8,1.17Z"/>
      <path class="cls-4" d="M172.33,382.13c-1.55-.5-3.09-1.01-4.63-1.53,1.54.53,3.08,1.04,4.63,1.53Z"/>
      <path class="cls-1" d="M244.81,223.98c-24.24,0-46.09,9.85-61.51,25.61,14.29,14.6,23.07,34.28,23.07,55.94v81.31c0,1.14-.04,2.27-.09,3.4-1.65-.27-3.28-.55-4.92-.85,14.07,2.6,28.6,3.96,43.45,3.96,12.22,0,24.22-.93,35.93-2.7-.06-1.26-.1-2.53-.1-3.81v-81.31c0-22.32,9.31-42.54,24.37-57.26-15.34-14.99-36.64-24.29-60.2-24.29h0Z"/>
      <path class="cls-4" d="M186.58,386.19c-1.36-.34-2.7-.7-4.05-1.06,1.35.36,2.69.72,4.05,1.06Z"/>
      <path class="cls-4" d="M182.53,385.13c-.25-.07-.5-.13-.75-.2.25.07.5.13.75.2Z"/>
      <path class="cls-4" d="M181.77,384.93c-1.29-.35-2.57-.72-3.84-1.09,1.28.37,2.56.74,3.84,1.09Z"/>
      <path class="cls-4" d="M329.39,377.91v-.03c-1.21.46-2.42.93-3.64,1.37,1.22-.44,2.43-.88,3.64-1.34Z"/>
      <path class="cls-4" d="M300.18,386.89c-4.2,1-8.44,1.89-12.72,2.66,4.28-.77,8.53-1.66,12.72-2.66Z"/>
      <path class="cls-4" d="M167.67,380.59c-2.5-.86-4.98-1.77-7.44-2.71v.03c2.46.94,4.94,1.82,7.44,2.67Z"/>
    </g>
    <rect class="cls-2" x="0" width="500" height="500" rx="117.17" ry="117.17" transform="translate(500 0) rotate(90)"/>
  </g>
</svg>