<?xml version="1.0" encoding="UTF-8"?>
<svg id="Layer_2" data-name="Layer 2" xmlns="http://www.w3.org/2000/svg" viewBox="0 0 499.57 166.31">
  <defs>
    <style>
      .cls-1 {
        stroke-width: 0px;
      }

      .cls-1, .cls-2 {
        fill: #078fce;
      }

      .cls-2 {
        font-family: MerriweatherSansRoman-ExtraBold, 'Merriweather Sans';
        font-size: 43.86px;
        font-variation-settings: 'wght' 800;
        font-weight: 700;
      }

      .cls-3 {
        letter-spacing: 0em;
      }
    </style>
  </defs>
  <g id="Layer_1-2" data-name="Layer 1">
    <g>
      <path class="cls-1" d="M48.79,36.05c7.83,0,14.17-6.35,14.17-14.17s-6.35-14.17-14.17-14.17-14.17,6.35-14.17,14.17,6.35,14.17,14.17,14.17ZM48.79,13.98c4.36,0,7.9,3.54,7.9,7.9s-3.54,7.9-7.9,7.9-7.9-3.54-7.9-7.9,3.54-7.9,7.9-7.9Z"/>
      <path class="cls-1" d="M190.9,36.05c7.83,0,14.17-6.35,14.17-14.17s-6.35-14.17-14.17-14.17-14.17,6.35-14.17,14.17,6.35,14.17,14.17,14.17ZM190.9,13.98c4.37,0,7.9,3.54,7.9,7.9s-3.54,7.9-7.9,7.9-7.9-3.54-7.9-7.9,3.54-7.9,7.9-7.9Z"/>
      <path class="cls-1" d="M239.48,152.08c-2.28-16.98-14.9-34.57-15.6-35.53-8.27-11.34-15.64-21.45-29.25-30.98-7.43-5.2-17.78-12.26-32.5-13.43-2.05-.16-3.91-.19-5.5-.15-2.06-12.89-5.32-23.99-12.04-35.16-5.89-9.78-16.47-22.97-12.41-29.07.2-.31,1.62-2.36,3.96-2.77,4.06-.71,8,4.03,10.18,6.72,15.14,18.67,17.79,27.6,28.83,35.03,4.36,2.93,8.5,4.61,10.17,5.27,14.19,5.65,22.32,2.35,26.43,8.23,2.41,3.44,2.3,8.41,1.08,11.7-2.59,7.02-11.35,9.45-10.4,13.22.18.72.69,1.38,1.34,1.69,3.51,1.67,12.93-6.04,14.91-15.34.26-1.2,1.41-6.61-1.25-11.88-6.42-12.75-25.46-5.45-42.41-19.28-.89-.73.13.05-16.79-21.26C147.29,5.27,142.86-.08,136.58,0c-4.41.06-9.18,2.8-10.83,6.72-2.25,5.34,1.94,11.32,5.85,17.76,0,0,9.7,16,17.55,38.35,1.25,3.55,2.12,6.9,2.78,10.47-2.63.43-5.54,1.41-8.17,3.43-7.5,5.76-7.62,16.03-7.67,19.68-.11,9.03,3.48,10.31,5.63,26.21,1.36,10.03.44,13.32-1.27,14.11-.95.44-2,.03-2.51-.17-5.67-2.26-3.84-11.93-10.3-22.6-1.66-2.74-5.08-8.39-8.88-8.02-2.86.28-4.63,3.83-6.5,7.58-4.24,8.49-2.81,13.02-7.37,19.93-.95,1.43-3.8,5.76-5.63,5.2-2.52-.78-1.66-10.34-1.3-14.3,1.5-16.7,6.27-20.64,5.2-32.5-.4-4.4-.94-9.6-4.98-13.86-3.21-3.39-7.26-4.75-10.25-5.31.65-3.34,1.49-6.51,2.67-9.86,7.85-22.35,17.55-38.35,17.55-38.35,3.9-6.44,8.09-12.43,5.85-17.76C112.34,2.8,107.57.06,103.16,0c-6.28-.09-10.71,5.27-21.66,19.06-16.92,21.31-15.9,20.54-16.79,21.26-16.94,13.84-35.98,6.53-42.41,19.28-2.65,5.27-1.5,10.68-1.25,11.88,1.98,9.3,11.4,17.01,14.91,15.34.65-.31,1.16-.98,1.34-1.69.95-3.77-7.81-6.19-10.4-13.22-1.21-3.29-1.32-8.25,1.08-11.7,4.11-5.88,12.24-2.58,26.43-8.23,1.67-.66,5.82-2.34,10.17-5.27,11.03-7.42,13.69-16.36,28.83-35.03,2.18-2.69,6.12-7.43,10.18-6.72,2.34.41,3.76,2.47,3.96,2.77,4.05,6.1-6.52,19.3-12.41,29.07-6.73,11.17-9.98,22.27-12.04,35.16-1.6-.04-3.45-.01-5.5.15-14.72,1.17-25.07,8.23-32.5,13.43-13.61,9.53-20.98,19.64-29.25,30.98-.7.96-13.32,18.55-15.6,35.53-.41,3.07-.64,7.24,1.95,10.4,2.49,3.04,6.86,4.27,10.4,3.68,6.02-1,9.25-7.19,12.57-12.78,4.25-7.19,10.63-16.76,20.15-27.73,7.88-7.57,11.45-8.52,13.17-7.54,4.64,2.64-1.92,20.46,5.39,29.8,1.83,2.34,3.68,3.06,4.4,3.3,4.57,1.51,9.33-1.61,10.4-2.38,9.14-6.6,4.76-21.41,6.72-50.91.55-8.33.97-14.58,1.69-20,2.88.82,6.06,2.33,8.28,5.23,2.94,3.85,2.95,8.54,1.3,19.97-3.23,22.29-7.26,31.95-2.31,37.6.5.57,2.57,2.94,5.56,3.12,3.53.22,6.29-2.71,7.58-4.12,3.67-4,3.67-7.38,6.8-16.58,2.54-7.48,3.95-11.62,5.63-11.58,2.25.05,2.47,7.61,7.94,19.28,3.16,6.73,5.95,12.49,10.62,13,3.07.33,6.12-1.7,7.8-3.9,2.6-3.43,2.19-7.69.22-17.55-3.58-17.9-5.61-20.76-4.77-28.38.44-3.98,1.17-9.78,5.85-13.65,1.64-1.35,3.41-2.18,5.06-2.68.74,5.48,1.16,11.78,1.72,20.23,1.96,29.5-2.42,44.31,6.72,50.91,1.07.77,5.82,3.89,10.4,2.38.72-.24,2.57-.96,4.4-3.3,7.32-9.35.75-27.17,5.39-29.8,1.73-.98,5.29-.03,13.17,7.54,9.52,10.97,15.89,20.54,20.15,27.73,3.31,5.59,6.55,11.78,12.57,12.78,3.54.59,7.91-.64,10.4-3.68,2.59-3.16,2.36-7.32,1.95-10.4ZM79.98,99.87c-2.24,24.52.47,43.89-6.93,46.36-1.46.49-3.74.46-5.42-.65-3.04-2-2.71-6.58-3.25-16.9-.71-13.61-1.76-15.1-2.82-15.81-1.93-1.3-5.88-1.4-14.95,4.77-7.42,6.23-12.3,12.18-15.38,16.46-9.76,13.58-12.79,26.09-21.23,26.65-1.22.08-2.48.16-3.47-.65-7.02-5.81,13.5-46.07,39.06-67.76,12.74-10.81,23.06-13.89,30.7-14.78,2.33-.27,4.38-.33,6.04-.32-.92,6.91-1.6,14.37-2.35,22.63ZM233.2,160.1c-.98.81-2.24.73-3.47.65-8.44-.56-11.47-13.07-21.23-26.65-3.08-4.28-7.96-10.24-15.38-16.46-9.07-6.17-13.02-6.07-14.95-4.77-1.06.71-2.11,2.2-2.82,15.81-.54,10.32-.21,14.9-3.25,16.9-1.68,1.11-3.95,1.14-5.42.65-7.4-2.47-4.69-21.84-6.93-46.36-.75-8.26-1.43-15.72-2.35-22.63,1.66-.02,3.71.04,6.04.32,7.64.89,17.96,3.97,30.7,14.78,25.57,21.69,46.09,61.95,39.06,67.76Z"/>
      <path class="cls-1" d="M106.87,67.81c0,7.18,5.82,13,13,13s13-5.82,13-13-5.82-13-13-13-13,5.82-13,13ZM119.87,60.56c4,0,7.25,3.25,7.25,7.25s-3.25,7.25-7.25,7.25-7.25-3.25-7.25-7.25,3.25-7.25,7.25-7.25Z"/>
    </g>
    <text class="cls-2" transform="translate(258.68 43.41)"><tspan x="0" y="0">Citi</tspan><tspan class="cls-3" x="77.28" y="0">z</tspan><tspan x="100.27" y="0">en </tspan><tspan x="0" y="52.63">Compliant </tspan><tspan x="0" y="105.27">System</tspan></text>
  </g>
</svg>